<svg width="64" height="64" viewBox="0 0 64 64" fill="none" xmlns="http://www.w3.org/2000/svg">
<g clip-path="url(#clip0_2155_624)">
<g clip-path="url(#clip1_2155_624)">
<path d="M32.5002 54.5502C44.6781 54.5502 54.5502 44.6781 54.5502 32.5002C54.5502 20.3223 44.6781 10.4502 32.5002 10.4502C20.3223 10.4502 10.4502 20.3223 10.4502 32.5002C10.4502 44.6781 20.3223 54.5502 32.5002 54.5502Z" stroke="url(#paint0_radial_2155_624)" stroke-width="3"/>
<path d="M32.4998 17.7998L34.9498 30.0498L47.1998 32.4998L34.9498 34.9498L32.4998 47.1998L30.0498 34.9498L17.7998 32.4998L30.0498 30.0498L32.4998 17.7998Z" fill="black"/>
<path d="M32.4998 17.7998L34.9498 30.0498L47.1998 32.4998L34.9498 34.9498L32.4998 47.1998L30.0498 34.9498L17.7998 32.4998L30.0498 30.0498L32.4998 17.7998Z" fill="url(#paint1_radial_2155_624)"/>
</g>
</g>
<defs>
<radialGradient id="paint0_radial_2155_624" cx="0" cy="0" r="1" gradientUnits="userSpaceOnUse" gradientTransform="translate(44.1158 46.8721) rotate(-129.598) scale(34.7484)">
<stop stop-color="#182D34"/>
<stop offset="0.245192" stop-color="#10BCD2"/>
<stop offset="0.524038" stop-color="#15EE68"/>
<stop offset="0.778846" stop-color="#00BFFF"/>
<stop offset="1" stop-color="#4EAC72"/>
</radialGradient>
<radialGradient id="paint1_radial_2155_624" cx="0" cy="0" r="1" gradientUnits="userSpaceOnUse" gradientTransform="translate(40.2436 42.0811) rotate(-129.598) scale(23.1656)">
<stop stop-color="#182D34"/>
<stop offset="0.245192" stop-color="#10BCD2"/>
<stop offset="0.524038" stop-color="#15EE68"/>
<stop offset="0.778846" stop-color="#00BFFF"/>
<stop offset="1" stop-color="#4EAC72"/>
</radialGradient>
<clipPath id="clip0_2155_624">
<rect width="64" height="64" fill="white"/>
</clipPath>
<clipPath id="clip1_2155_624">
<rect width="49" height="49" fill="white" transform="translate(8 8)"/>
</clipPath>
</defs>
</svg>
